<svg xmlns="http://www.w3.org/2000/svg" xmlns:xlink="http://www.w3.org/1999/xlink" width="500" zoomAndPan="magnify" viewBox="0 0 375 374.999991" height="500" preserveAspectRatio="xMidYMid meet" version="1.2"><defs><clipPath id="96ba062bc3"><path d="M 63.007812 133 L 149.640625 133 L 149.640625 219.632812 L 63.007812 219.632812 Z M 63.007812 133 "/></clipPath><clipPath id="09d8d7fb5b"><path d="M 106.324219 133 C 82.402344 133 63.007812 152.394531 63.007812 176.316406 C 63.007812 200.238281 82.402344 219.632812 106.324219 219.632812 C 130.246094 219.632812 149.640625 200.238281 149.640625 176.316406 C 149.640625 152.394531 130.246094 133 106.324219 133 Z M 106.324219 133 "/></clipPath><clipPath id="bf84122b90"><path d="M 191.847656 133 L 278.480469 133 L 278.480469 219.632812 L 191.847656 219.632812 Z M 191.847656 133 "/></clipPath><clipPath id="018a3b010e"><path d="M 235.164062 133 C 211.238281 133 191.847656 152.394531 191.847656 176.316406 C 191.847656 200.238281 211.238281 219.632812 235.164062 219.632812 C 259.085938 219.632812 278.480469 200.238281 278.480469 176.316406 C 278.480469 152.394531 259.085938 133 235.164062 133 Z M 235.164062 133 "/></clipPath><clipPath id="b77a71d03b"><path d="M 77.699219 72.167969 L 185.941406 72.167969 L 185.941406 180.40625 L 77.699219 180.40625 Z M 77.699219 72.167969 "/></clipPath><clipPath id="26e7b36315"><path d="M 131.820312 72.167969 C 101.929688 72.167969 77.699219 96.398438 77.699219 126.289062 C 77.699219 156.175781 101.929688 180.40625 131.820312 180.40625 C 161.710938 180.40625 185.941406 156.175781 185.941406 126.289062 C 185.941406 96.398438 161.710938 72.167969 131.820312 72.167969 Z M 131.820312 72.167969 "/></clipPath><clipPath id="ac773273b5"><path d="M 148.53125 93.773438 L 235.164062 93.773438 L 235.164062 180.40625 L 148.53125 180.40625 Z M 148.53125 93.773438 "/></clipPath><clipPath id="1d89c4cece"><path d="M 191.847656 93.773438 C 167.921875 93.773438 148.53125 113.167969 148.53125 137.089844 C 148.53125 161.015625 167.921875 180.40625 191.847656 180.40625 C 215.769531 180.40625 235.164062 161.015625 235.164062 137.089844 C 235.164062 113.167969 215.769531 93.773438 191.847656 93.773438 Z M 191.847656 93.773438 "/></clipPath><clipPath id="6ed7e827ec"><path d="M 89.058594 147.136719 L 244.53125 147.136719 L 244.53125 219.632812 L 89.058594 219.632812 Z M 89.058594 147.136719 "/></clipPath><clipPath id="b07f2bfbe4"><path d="M 106.308594 147.136719 L 227.101562 147.136719 C 231.675781 147.136719 236.0625 148.953125 239.296875 152.1875 C 242.535156 155.421875 244.351562 159.8125 244.351562 164.386719 L 244.351562 202.382812 C 244.351562 206.957031 242.535156 211.34375 239.296875 214.582031 C 236.0625 217.816406 231.675781 219.632812 227.101562 219.632812 L 106.308594 219.632812 C 101.734375 219.632812 97.34375 217.816406 94.109375 214.582031 C 90.875 211.34375 89.058594 206.957031 89.058594 202.382812 L 89.058594 164.386719 C 89.058594 159.8125 90.875 155.421875 94.109375 152.1875 C 97.34375 148.953125 101.734375 147.136719 106.308594 147.136719 Z M 106.308594 147.136719 "/></clipPath><clipPath id="b62511824e"><path d="M 200.804688 42.171875 L 287.804688 42.171875 L 287.804688 129.171875 L 200.804688 129.171875 Z M 200.804688 42.171875 "/></clipPath><clipPath id="62d172e8af"><path d="M 259.867188 102.273438 L 312 102.273438 L 312 154.773438 L 259.867188 154.773438 Z M 259.867188 102.273438 "/></clipPath><clipPath id="c43aa2200e"><path d="M 110 230 L 156 230 L 156 296 L 110 296 Z M 110 230 "/></clipPath><clipPath id="e5dc7296a9"><path d="M 132.652344 225.539062 L 159.886719 288.3125 L 133.277344 299.855469 L 106.046875 237.078125 Z M 132.652344 225.539062 "/></clipPath><clipPath id="21eca25819"><path d="M 138.425781 238.839844 L 154.089844 274.957031 C 155.621094 278.484375 155.6875 282.476562 154.273438 286.054688 C 152.863281 289.632812 150.085938 292.5 146.558594 294.03125 C 143.03125 295.5625 139.039062 295.628906 135.460938 294.214844 C 131.882812 292.804688 129.015625 290.027344 127.484375 286.5 L 111.816406 250.382812 C 110.285156 246.855469 110.21875 242.863281 111.632812 239.285156 C 113.046875 235.707031 115.820312 232.839844 119.351562 231.308594 C 122.878906 229.777344 126.871094 229.710938 130.449219 231.125 C 134.023438 232.535156 136.894531 235.3125 138.425781 238.839844 Z M 138.425781 238.839844 "/></clipPath><clipPath id="51bb78c541"><path d="M 175 248 L 227 248 L 227 329 L 175 329 Z M 175 248 "/></clipPath><clipPath id="2f172270c2"><path d="M 197.34375 244.023438 L 230.886719 321.351562 L 204.277344 332.890625 L 170.734375 255.5625 Z M 197.34375 244.023438 "/></clipPath><clipPath id="1dad9324ca"><path d="M 203.113281 257.324219 L 225.085938 307.980469 C 226.617188 311.511719 226.683594 315.503906 225.273438 319.078125 C 223.859375 322.65625 221.082031 325.527344 217.554688 327.058594 C 214.027344 328.585938 210.035156 328.652344 206.457031 327.242188 C 202.878906 325.828125 200.011719 323.050781 198.480469 319.523438 L 176.507812 268.867188 C 174.976562 265.339844 174.910156 261.347656 176.324219 257.769531 C 177.734375 254.191406 180.511719 251.324219 184.039062 249.792969 C 187.566406 248.261719 191.558594 248.195312 195.136719 249.609375 C 198.714844 251.023438 201.582031 253.796875 203.113281 257.324219 Z M 203.113281 257.324219 "/></clipPath><clipPath id="7d10784a38"><path d="M 224 230 L 264 230 L 264 284 L 224 284 Z M 224 230 "/></clipPath><clipPath id="611212fdfe"><path d="M 246.28125 225.539062 L 268.554688 276.882812 L 241.945312 288.425781 L 219.675781 237.082031 Z M 246.28125 225.539062 "/></clipPath><clipPath id="e53b0ab533"><path d="M 252.054688 238.84375 L 262.785156 263.578125 C 264.3125 267.109375 264.378906 271.097656 262.96875 274.675781 C 261.554688 278.253906 258.777344 281.125 255.25 282.652344 C 251.722656 284.183594 247.730469 284.25 244.152344 282.835938 C 240.574219 281.425781 237.707031 278.648438 236.175781 275.121094 L 225.445312 250.386719 C 223.914062 246.855469 223.847656 242.863281 225.261719 239.289062 C 226.675781 235.710938 229.449219 232.839844 232.980469 231.3125 C 236.507812 229.78125 240.5 229.714844 244.078125 231.125 C 247.652344 232.539062 250.523438 235.316406 252.054688 238.84375 Z M 252.054688 238.84375 "/></clipPath></defs><g id="55f3f0c41b"><g clip-rule="nonzero" clip-path="url(#96ba062bc3)"><g clip-rule="nonzero" clip-path="url(#09d8d7fb5b)"><path style=" stroke:none;fill-rule:nonzero;fill:#000000;fill-opacity:1;" d="M 63.007812 133 L 149.640625 133 L 149.640625 219.632812 L 63.007812 219.632812 Z M 63.007812 133 "/></g></g><g clip-rule="nonzero" clip-path="url(#bf84122b90)"><g clip-rule="nonzero" clip-path="url(#018a3b010e)"><path style=" stroke:none;fill-rule:nonzero;fill:#000000;fill-opacity:1;" d="M 191.847656 133 L 278.480469 133 L 278.480469 219.632812 L 191.847656 219.632812 Z M 191.847656 133 "/></g></g><g clip-rule="nonzero" clip-path="url(#b77a71d03b)"><g clip-rule="nonzero" clip-path="url(#26e7b36315)"><path style=" stroke:none;fill-rule:nonzero;fill:#000000;fill-opacity:1;" d="M 77.699219 72.167969 L 185.941406 72.167969 L 185.941406 180.40625 L 77.699219 180.40625 Z M 77.699219 72.167969 "/></g></g><g clip-rule="nonzero" clip-path="url(#ac773273b5)"><g clip-rule="nonzero" clip-path="url(#1d89c4cece)"><path style=" stroke:none;fill-rule:nonzero;fill:#000000;fill-opacity:1;" d="M 148.53125 93.773438 L 235.164062 93.773438 L 235.164062 180.40625 L 148.53125 180.40625 Z M 148.53125 93.773438 "/></g></g><g clip-rule="nonzero" clip-path="url(#6ed7e827ec)"><g clip-rule="nonzero" clip-path="url(#b07f2bfbe4)"><path style=" stroke:none;fill-rule:nonzero;fill:#000000;fill-opacity:1;" d="M 89.058594 147.136719 L 244.246094 147.136719 L 244.246094 219.632812 L 89.058594 219.632812 Z M 89.058594 147.136719 "/></g></g><g clip-rule="nonzero" clip-path="url(#b62511824e)"><path style=" stroke:none;fill-rule:nonzero;fill:#000000;fill-opacity:1;" d="M 244.304688 42.171875 C 240.066406 77.996094 236.628906 81.433594 200.804688 85.671875 C 200.878906 85.683594 200.953125 85.691406 201.027344 85.699219 C 236.640625 89.925781 240.074219 93.425781 244.304688 129.171875 C 248.542969 93.351562 251.980469 89.914062 287.804688 85.671875 C 251.980469 81.433594 248.542969 77.996094 244.304688 42.171875 Z M 244.304688 42.171875 "/></g><g clip-rule="nonzero" clip-path="url(#62d172e8af)"><path style=" stroke:none;fill-rule:nonzero;fill:#000000;fill-opacity:1;" d="M 285.929688 102.273438 C 283.390625 123.738281 281.328125 125.796875 259.867188 128.335938 C 259.910156 128.339844 259.957031 128.347656 260 128.351562 C 281.335938 130.882812 283.394531 132.980469 285.929688 154.398438 C 288.46875 132.933594 290.527344 130.875 311.992188 128.335938 C 290.527344 125.796875 288.46875 123.738281 285.929688 102.273438 Z M 285.929688 102.273438 "/></g><g clip-rule="nonzero" clip-path="url(#c43aa2200e)"><g clip-rule="nonzero" clip-path="url(#e5dc7296a9)"><g clip-rule="nonzero" clip-path="url(#21eca25819)"><path style=" stroke:none;fill-rule:nonzero;fill:#222222;fill-opacity:1;" d="M 132.652344 225.539062 L 159.839844 288.210938 L 133.230469 299.75 L 106.046875 237.078125 Z M 132.652344 225.539062 "/></g></g></g><g clip-rule="nonzero" clip-path="url(#51bb78c541)"><g clip-rule="nonzero" clip-path="url(#2f172270c2)"><g clip-rule="nonzero" clip-path="url(#1dad9324ca)"><path style=" stroke:none;fill-rule:nonzero;fill:#222222;fill-opacity:1;" d="M 197.34375 244.023438 L 230.839844 321.246094 L 204.234375 332.789062 L 170.734375 255.5625 Z M 197.34375 244.023438 "/></g></g></g><g clip-rule="nonzero" clip-path="url(#7d10784a38)"><g clip-rule="nonzero" clip-path="url(#611212fdfe)"><g clip-rule="nonzero" clip-path="url(#e53b0ab533)"><path style=" stroke:none;fill-rule:nonzero;fill:#222222;fill-opacity:1;" d="M 246.28125 225.539062 L 268.554688 276.882812 L 241.945312 288.425781 L 219.675781 237.082031 Z M 246.28125 225.539062 "/></g></g></g></g></svg>